<?xml version="1.0" encoding="UTF-8"?>
<svg width="262px" height="59px" viewBox="0 0 262 59" version="1.1" xmlns="http://www.w3.org/2000/svg" xmlns:xlink="http://www.w3.org/1999/xlink">
    <!-- Generator: Sketch 51.2 (57519) - http://www.bohemiancoding.com/sketch -->
    <title>Logo</title>
    <defs></defs>
    <g id="Logo" stroke="none" stroke-width="1" fill="none" fill-rule="evenodd">
        <g fill="#1B3066" fill-rule="nonzero" id="Shape">
            <polygon points="28.5706145 6.41318532 24.9048294 12.2332207 46.2644588 12.2332207 49.9342634 6.41318532"></polygon>
            <polygon points="3.6698046 16.2937105 0 22.1177267 40.034232 22.1177267 43.7040366 16.2937105"></polygon>
            <polygon points="9.90405096 26.1782164 6.23424636 31.9982518 33.8080246 31.9982518 37.4738097 26.1782164"></polygon>
            <polygon points="66.6674469 0 58.8173611 0 38.6515236 31.9982518 46.3569074 31.9982518 61.2652373 7.92591681 61.7716945 7.08197188 64.9591589 20.2188506 57.004566 20.2188506 53.1177084 26.5126097 66.5749984 26.5126097 67.9577068 31.9982518 75.4822131 31.9982518"></polygon>
            <path d="M194.881496,9.42670568 C193.943757,9.0727684 192.94666,8.89850102 191.943241,8.91317315 C189.358702,8.91317315 187.28062,9.78100332 185.294986,11.9306744 L185.250771,9.46253353 L179.064759,9.46253353 L175.045258,31.9982518 L181.681454,31.9982518 L183.759536,20.2506975 C184.201165,17.1984672 186.881546,14.9580418 189.993783,15.0397357 C190.416238,15.0395885 190.837668,15.0809264 191.251887,15.1631427 L194.881496,9.42670568 Z"></path>
            <path d="M218.906055,9.41476306 L214.886554,31.9982518 L208.889458,31.9982518 L209.026121,29.1638707 C207.136955,31.5523941 203.579697,32.5038226 201.409166,32.5038226 C195.41207,32.5038226 191.489037,28.9807506 191.489037,22.8541881 C191.489037,14.2156951 198.133273,8.77384262 205.798462,8.92113489 C208.612112,8.92113489 211.196652,10.1552053 211.980454,12.0301962 L212.675828,9.42272481 L218.906055,9.41476306 Z M198.273955,21.7554673 C198.273955,24.8645286 200.348018,26.6479594 203.302351,26.6479594 C207.50273,26.6479594 210.505297,23.3080075 210.505297,19.8804764 C210.505297,17.1376554 208.933672,14.7053424 205.424648,14.7053424 C201.734746,14.7053424 198.273955,17.3566034 198.273955,21.7475055 L198.273955,21.7554673 Z"></path>
            <polygon points="146.555033 31.9982518 139.955012 31.9982518 145.634568 0.0437895956 152.234589 0.0437895956"></polygon>
            <path d="M133.84939,25.0794957 C132.004439,26.4767819 129.427939,26.8430221 127.651319,26.8430221 C123.909164,26.8430221 122.112447,25.0595913 122.156661,22.8621498 L138.913962,22.8621498 C142.004958,13.5827364 137.760365,8.82957483 130.002727,8.82957483 C121.561775,8.82957483 115.600855,14.6336867 115.600855,22.6790297 C115.600855,28.5786825 119.294776,32.5117843 126.497722,32.5117843 C129.841947,32.5117843 133.700668,31.6081263 136.582651,29.402723 L133.84939,25.0794957 Z M129.025989,14.4505666 C131.795425,14.4505666 134.058404,15.6448283 133.84939,18.0651986 L123.036932,18.0651986 C124.09808,15.8160058 126.316845,14.4426048 129.025989,14.4426048 L129.025989,14.4505666 Z"></path>
            <path d="M168.911499,25.1033809 C167.070567,26.472801 164.534262,26.8350604 162.761662,26.8350604 C159.019507,26.8350604 157.22279,25.0516296 157.267004,22.8541881 L174.044402,22.8541881 C177.135398,13.5747746 172.890805,8.82161309 165.137187,8.82161309 C156.668098,8.82161309 150.731295,14.6257249 150.731295,22.6909723 C150.731295,28.5906251 154.425217,32.5237269 161.628163,32.5237269 C164.95229,32.5237269 168.790914,31.6320115 171.676916,29.4504935 L168.911499,25.1033809 Z M164.144371,14.4426048 C166.913807,14.4426048 169.176786,15.6368665 168.947675,18.0572369 L158.143255,18.0572369 C159.208423,15.8160058 161.423168,14.4426048 164.144371,14.4426048 Z"></path>
            <path d="M255.153917,25.0794957 C253.312985,26.4608584 250.768641,26.8231178 248.988002,26.8231178 C245.249866,26.8231178 243.449129,25.039687 243.497363,22.8422454 L260.250644,22.8422454 C263.341641,13.562832 259.097047,8.80967047 251.34343,8.80967047 C242.902477,8.80967047 236.941557,14.6137823 236.941557,22.6591253 C236.941557,28.5587781 240.631459,32.49188 247.834405,32.49188 C251.166572,32.49188 255.013234,31.5961837 257.883158,29.4067039 L255.153917,25.0794957 Z M250.37071,14.4306622 C253.144166,14.4306622 255.403126,15.6249239 255.194112,18.0452943 L244.385673,18.0452943 C245.434763,15.8160058 247.649508,14.4426048 250.37071,14.4426048 L250.37071,14.4306622 Z"></path>
            <path d="M92.2113771,24.7729685 C90.9130782,25.8398423 88.786762,26.4210497 87.3276831,26.4210497 C84.5582468,26.4210497 82.3877161,24.7291789 82.3877161,21.6678881 C82.3877161,17.460106 85.8525262,14.8566155 89.5424283,14.8566155 C91.0144973,14.7820427 92.4618289,15.253227 93.6021245,16.1782652 L96.934291,10.8757432 C95.201886,9.40282045 93.0434138,8.91317315 90.3302505,8.91317315 C82.8017248,8.91317315 75.5666226,13.9887854 75.5666226,22.9019585 C75.5666226,29.4863214 80.2734585,32.5038226 86.1821253,32.5038226 C89.4398149,32.5413329 92.6110371,31.4658313 95.161691,29.4584552 L92.2113771,24.7729685 Z"></path>
            <path d="M112.308883,24.7809303 C110.895551,25.8138417 109.193389,26.3869037 107.437248,26.4210497 C104.667811,26.4210497 102.497281,24.7291789 102.497281,21.6678881 C102.497281,17.460106 105.962091,14.8566155 109.651993,14.8566155 C111.108566,14.7860398 112.540093,15.2510682 113.671494,16.1623417 L117.00366,10.8558388 C115.275275,9.3948587 113.124842,8.91317315 110.423737,8.91317315 C102.899231,8.91317315 95.6641286,13.9887854 95.6641286,22.9019585 C95.6641286,29.4863214 100.370965,32.5038226 106.279631,32.5038226 C109.537268,32.541007 112.708383,31.4655418 115.259197,29.4584552 L112.308883,24.7809303 Z"></path>
            <path d="M230.900247,15.0357548 L236.720484,15.0357548 L237.685165,9.55409359 L231.925219,9.55409359 L233.002446,3.41558846 L226.370269,3.41558846 L225.268925,9.55409359 L221.20521,9.55409359 L220.240529,15.0357548 L224.288167,15.0357548 L222.764776,23.542879 C222.595529,24.4317653 222.50408,25.3334633 222.49145,26.2379295 C222.49145,30.8557414 225.256867,32.5038226 229.18392,32.5038226 C231.157122,32.4934597 233.112802,32.136275 234.959943,31.4488914 L235.325717,31.3015991 L235.651297,31.1582877 L235.804038,31.0826512 L236.037169,30.963225 L236.419022,30.7562196 L233.573215,26.2737574 C232.881645,26.4635453 232.16846,26.5652141 231.450918,26.5763037 C230.301341,26.5763037 229.288427,26.1782164 229.288427,24.382843 C229.302756,24.106775 229.332276,23.8316864 229.376856,23.5588025 L230.900247,15.0357548 Z"></path>
            <polygon points="200.034497 40.4217776 195.098549 46.6518428 192.739102 40.4217776 189.981724 40.4217776 187.493653 54.4185248 190.25505 54.4185248 191.78648 45.6924526 194.113772 51.3731574 194.652385 51.3731574 199.234616 45.7481848 197.719264 54.4185248 200.528895 54.4185248 203.037064 40.4217776"></polygon>
            <path d="M252.931133,44.5300379 L252.62967,45.6685674 C252.288012,44.8485077 251.158533,44.307109 249.928565,44.307109 C246.580321,44.247396 243.674221,46.6239767 243.674221,50.4018246 C243.674221,53.0769708 245.390548,54.6135875 248.011263,54.6135875 C248.959865,54.6135875 250.511393,54.1955959 251.33941,53.1565882 L251.279118,54.3946395 L253.899832,54.3946395 L255.640276,44.5300379 L252.931133,44.5300379 Z M248.83928,52.0578675 C247.545001,52.0578675 246.640613,51.261693 246.640613,49.920139 C246.623838,49.0966084 246.948165,48.3021695 247.538155,47.72161 C248.128145,47.1410504 248.932369,46.8249759 249.763766,46.8469056 C251.299215,46.8469056 251.98253,47.9058176 251.98253,49.1040602 C251.92359,50.7729232 250.525109,52.0871176 248.83928,52.0578675 Z"></path>
            <polygon points="258.385596 40.4337203 255.901544 54.3946395 258.787546 54.3946395 261.267578 40.4337203"></polygon>
            <path d="M238.794547,44.2673003 C235.104645,44.2673003 232.500008,46.8070969 232.500008,50.3222071 C232.500008,52.8978315 234.107809,54.6135875 237.263117,54.6135875 C238.831936,54.6410719 240.368522,54.1709958 241.648393,53.2720335 L240.442542,51.3811192 C239.646606,51.9022986 238.707215,52.1665273 237.753496,52.1374849 C236.121579,52.1374849 235.341795,51.3612148 235.341795,50.4018246 L242.661307,50.4018246 C244.035976,46.3453157 242.182986,44.2673003 238.794547,44.2673003 Z M240.466659,48.3039049 L235.747765,48.3039049 C236.225988,47.3041981 237.256013,46.6793119 238.372499,46.7115559 C239.582369,46.7234985 240.567147,47.2449928 240.466659,48.3039049 Z"></path>
            <path d="M226.169294,40.4018733 L220.47366,40.4018733 L218.033823,54.3986204 L223.729456,54.3986204 C229.642143,54.3986204 232.005609,50.0594696 232.005609,46.0626737 C232.005609,42.9934212 230.277224,40.4018733 226.169294,40.4018733 Z M224.223855,51.5204497 L221.587062,51.5204497 L223.05418,43.2203309 L225.694992,43.2203309 C228.106693,43.2203309 228.910593,44.7808328 228.910593,46.4408566 C228.930691,48.3994458 227.957972,51.5204497 224.223855,51.5204497 Z"></path>
            <path d="M211.53027,44.5220761 L209.480325,48.1048612 L207.74792,51.3174252 L207.173131,48.1048612 L206.393348,44.5220761 L203.23,44.5220761 L205.798462,54.319003 L205.850715,54.4941613 C205.418758,55.2194701 204.681184,55.7147389 203.840964,55.8436771 C203.64418,55.8551843 203.446882,55.8551843 203.250098,55.8436771 L202.811972,58.4312441 C203.38203,58.4725028 203.954948,58.4511415 204.52026,58.3675501 C206.090223,58.0739414 207.429803,57.0671186 208.137811,55.6486143 L214.826261,44.5021718 L211.53027,44.5220761 Z"></path>
        </g>
    </g>
</svg>
